HIERARCHY
ROOT Hips
{
	OFFSET -0.001795 -0.223333 0.028219
	CHANNELS 6 Xposition Yposition Zposition Zrotation Yrotation Xrotation 
	JOINT LeftUpLeg
	{
		OFFSET 0.069520 -0.091406 -0.006815
		CHANNELS 3 Zrotation Yrotation Xrotation
		JOINT LeftLeg
		{
			OFFSET 0.034277 -0.375199 -0.004496
			CHANNELS 3 Zrotation Yrotation Xrotation
			JOINT LeftFoot
			{
				OFFSET -0.013596 -0.397961 -0.043693
				CHANNELS 3 Zrotation Yrotation Xrotation
				JOINT LeftToe
				{
					OFFSET 0.026358 -0.055791 0.119288
					CHANNELS 3 Zrotation Yrotation Xrotation
					End Site
					{
						OFFSET 0.000000 0.000000 0.000000
					}
				}
			}
		}
	}
	JOINT RightUpLeg
	{
		OFFSET -0.067670 -0.090522 -0.004320
		CHANNELS 3 Zrotation Yrotation Xrotation
		JOINT RightLeg
		{
			OFFSET -0.038290 -0.382569 -0.008850
			CHANNELS 3 Zrotation Yrotation Xrotation
			JOINT RightFoot
			{
				OFFSET 0.015774 -0.398415 -0.042312
				CHANNELS 3 Zrotation Yrotation Xrotation
				JOINT RightToe
				{
					OFFSET -0.025372 -0.048144 0.123348
					CHANNELS 3 Zrotation Yrotation Xrotation
					End Site
					{
						OFFSET 0.000000 0.000000 0.000000
					}
				}
			}
		}
	}
	JOINT Spine
	{
		OFFSET -0.002533 0.108963 -0.026696
		CHANNELS 3 Zrotation Yrotation Xrotation
		JOINT Spine1
		{
			OFFSET 0.005487 0.135180 0.001092
			CHANNELS 3 Zrotation Yrotation Xrotation
			JOINT Spine2
			{
				OFFSET 0.001457 0.052922 0.025425
				CHANNELS 3 Zrotation Yrotation Xrotation
				JOINT Neck
				{
					OFFSET -0.002778 0.213870 -0.042857
					CHANNELS 3 Zrotation Yrotation Xrotation
					JOINT Head
					{
						OFFSET 0.005152 0.064970 0.051349
						CHANNELS 3 Zrotation Yrotation Xrotation
						End Site
						{
							OFFSET 0.000000 0.000000 0.000000
						}
					}
				}
				JOINT LeftShoulder
				{
					OFFSET 0.078845 0.121749 -0.034090
					CHANNELS 3 Zrotation Yrotation Xrotation
					JOINT LeftArm
					{
						OFFSET 0.090977 0.030469 -0.008868
						CHANNELS 3 Zrotation Yrotation Xrotation
						JOINT LeftForeArm
						{
							OFFSET 0.259612 -0.012772 -0.027456
							CHANNELS 3 Zrotation Yrotation Xrotation
							JOINT LeftHand
							{
								OFFSET 0.249234 0.008986 -0.001171
								CHANNELS 3 Zrotation Yrotation Xrotation
								End Site
								{
									OFFSET 0.000000 0.000000 0.000000
								}
							}
						}
					}
				}
				JOINT RightShoulder
				{
					OFFSET -0.081759 0.118833 -0.038615
					CHANNELS 3 Zrotation Yrotation Xrotation
					JOINT RightArm
					{
						OFFSET -0.096012 0.032551 -0.009143
						CHANNELS 3 Zrotation Yrotation Xrotation
						JOINT RightForeArm
						{
							OFFSET -0.253742 -0.013329 -0.021401
							CHANNELS 3 Zrotation Yrotation Xrotation
							JOINT RightHand
							{
								OFFSET -0.255298 0.007772 -0.005559
								CHANNELS 3 Zrotation Yrotation Xrotation
								End Site
								{
									OFFSET 0.000000 0.000000 0.000000
								}
							}
						}
					}
				}
			}
		}
	}
}
MOTION
Frames: 11
Frame Time: 0.050000
0.000000 0.849746 0.000000 1.361743 -7.137083 6.645400 8.346291 -0.577170 -32.469625 -6.767914 2.082119 28.498164 5.496204 6.354265 -23.421868 0.000000 0.000000 0.000000 -15.795370 0.898852 -12.655483 3.315774 0.549501 41.732202 -5.959802 9.884891 -33.683229 0.000000 0.000000 0.000000 -1.902726 0.294943 -7.229831 -1.682013 0.818811 -12.595804 0.051368 3.502149 33.092662 2.956963 0.111902 -25.518028 0.000000 0.000000 0.000000 29.090563 4.279352 0.880777 -85.497384 -8.716764 -3.686704 -14.444249 -25.975338 4.548636 0.000000 0.000000 0.000000 -29.472577 -4.274381 0.754983 92.519173 11.958844 2.065471 9.143004 30.115520 3.647496 0.000000 0.000000 0.000000 
-0.918564 0.852683 -1.070857 1.302745 6.577354 6.734895 11.380771 -0.674220 -33.675582 -6.758429 1.092572 26.203874 6.175314 7.283121 -19.178592 0.000000 0.000000 0.000000 -13.495739 0.616283 -8.628363 4.031685 -1.064040 32.827442 -5.562999 9.579989 -38.083912 0.000000 0.000000 0.000000 -1.157401 0.266202 -5.962038 -1.458177 0.920290 -12.238514 -0.640605 3.051358 32.759232 4.676100 -0.262813 -23.372947 0.000000 0.000000 0.000000 26.844140 3.856777 2.207325 -82.438865 -9.775612 -7.414330 -15.619554 -25.104951 4.630937 0.000000 0.000000 0.000000 -28.757154 -3.511218 -0.723417 90.935022 12.351840 7.496187 6.596830 30.930248 3.015961 0.000000 0.000000 0.000000 
-2.018211 0.848128 -1.953958 2.135627 19.907146 10.246101 11.411390 -1.684604 -37.423124 -5.339032 0.080825 22.851648 7.828925 12.069476 -16.133401 0.000000 0.000000 0.000000 -10.925499 0.658497 -10.062218 4.763407 -1.913646 26.019867 -4.710701 8.807054 -43.001747 0.000000 0.000000 0.000000 -0.616584 0.380604 -8.217042 -0.877079 0.896144 -12.647759 -0.818426 3.777011 32.361162 6.043988 0.177474 -24.966185 0.000000 0.000000 0.000000 26.184196 3.873817 3.875843 -82.598897 -11.220996 -11.339150 -17.468854 -23.948138 4.713574 0.000000 0.000000 0.000000 -28.360545 -3.339667 -2.417649 91.199719 10.144906 11.858513 4.923143 33.324850 2.705225 0.000000 0.000000 0.000000 
-3.158390 0.855402 -2.644751 2.832621 31.626898 12.197865 13.635800 -2.214806 -40.586527 -5.352221 -0.042795 17.007425 7.207759 11.204594 -10.650875 0.000000 0.000000 0.000000 -8.670388 0.733800 -13.370216 3.896469 -2.258826 25.047398 -2.843930 8.497487 -42.369618 0.000000 0.000000 0.000000 -0.306403 0.420080 -8.723676 -1.148014 1.105043 -11.449595 -0.720153 4.104984 32.431682 6.240242 0.467614 -21.999902 0.000000 0.000000 0.000000 26.629218 4.879698 5.256180 -82.772061 -13.943272 -13.650474 -18.276519 -23.275028 4.630910 0.000000 0.000000 0.000000 -29.809651 -2.417718 -3.667099 90.579184 11.370896 17.958181 -0.042492 34.269937 1.147339 0.000000 0.000000 0.000000 
-4.276477 0.861940 -3.124847 3.468364 44.553552 14.048768 14.435119 -2.995236 -41.336118 -7.376260 -0.033456 15.471761 8.736882 14.465534 -9.046230 0.000000 0.000000 0.000000 -6.519267 0.852279 -17.586278 3.490486 -3.134365 25.509588 -0.671839 6.967346 -40.543074 0.000000 0.000000 0.000000 -0.283199 0.432583 -8.536827 -0.799087 1.130320 -11.229476 -0.654019 3.292281 32.496817 6.643017 0.721925 -20.484917 0.000000 0.000000 0.000000 26.571736 5.463275 6.500107 -83.768033 -16.225908 -16.255135 -20.739120 -22.033691 4.785692 0.000000 0.000000 0.000000 -30.576470 -1.727640 -4.888935 90.634131 10.849008 22.043956 -1.674570 32.962439 0.359417 0.000000 0.000000 0.000000 
-5.282776 0.869800 -3.411384 4.684838 56.968918 19.102683 13.261129 -4.182128 -44.552583 -12.241728 -0.298737 22.690550 13.010795 24.680191 -11.265586 0.000000 0.000000 0.000000 -4.271594 1.177749 -22.689192 1.783419 -2.966831 23.981148 1.639925 4.373623 -37.815200 0.000000 0.000000 0.000000 -0.804466 0.624396 -12.227916 -0.582836 1.174085 -11.026117 -1.028063 2.065947 32.876047 7.073613 0.792487 -18.612494 0.000000 0.000000 0.000000 27.162014 5.378096 7.908828 -83.537307 -18.060529 -18.673818 -22.814465 -20.696963 4.751030 0.000000 0.000000 0.000000 -30.674202 -1.628197 -6.078720 90.710713 8.097272 23.780854 -1.575413 32.078938 0.173690 0.000000 0.000000 0.000000 
-6.167199 0.877728 -3.571417 7.516160 70.026430 21.783546 10.777222 -5.128857 -43.740034 -17.598044 -1.463301 33.470463 15.704680 31.786354 -10.154553 0.000000 0.000000 0.000000 -2.515991 1.108171 -23.386254 0.310502 -2.866817 21.988526 3.756353 2.120182 -36.312403 0.000000 0.000000 0.000000 -0.455080 0.615522 -11.968047 -0.210380 1.195487 -11.214693 -1.486844 1.190158 32.552531 7.288089 1.301656 -17.982276 0.000000 0.000000 0.000000 27.602157 5.266972 9.454094 -83.511370 -20.079283 -21.758058 -24.476691 -19.891588 4.664338 0.000000 0.000000 0.000000 -30.471755 -2.361959 -7.460167 90.223958 3.604105 23.756331 -2.236193 31.498659 -0.152768 0.000000 0.000000 0.000000 
-6.953600 0.882231 -3.634826 22.909447 81.956263 36.758757 7.620508 -4.837924 -39.284256 -23.969889 -3.065172 41.780141 19.048866 37.674973 -7.181193 0.000000 0.000000 0.000000 -1.387453 0.779834 -24.764078 -0.459524 -3.371915 21.307876 5.686920 0.796449 -35.380991 0.000000 0.000000 0.000000 -0.903976 0.612642 -11.914828 0.363733 1.128690 -10.999745 -1.983831 0.047759 32.051914 7.901778 1.817460 -18.438205 0.000000 0.000000 0.000000 27.891368 6.136378 10.759186 -82.749764 -20.382206 -25.499083 -27.493226 -18.959227 4.588343 0.000000 0.000000 0.000000 -30.577119 -2.708203 -8.690084 90.181023 -1.212040 23.522772 -2.357927 32.680293 -0.338964 0.000000 0.000000 0.000000 
-7.702557 0.884182 -3.611041 149.471152 84.651699 164.277857 5.929585 -3.945389 -34.676413 -27.697488 -4.955291 46.181264 21.996761 38.362804 -6.520103 0.000000 0.000000 0.000000 -0.729249 0.100251 -26.843252 -1.021106 -4.097070 20.884987 7.604680 1.154953 -32.476072 0.000000 0.000000 0.000000 -0.762542 0.635434 -13.309952 0.782773 1.095595 -11.085643 -2.434322 -1.627247 32.347976 8.313991 2.366999 -18.565351 0.000000 0.000000 0.000000 27.529637 6.744155 11.679034 -82.328747 -19.765361 -29.531145 -29.939538 -18.142042 4.301667 0.000000 0.000000 0.000000 -30.416884 -2.649708 -9.789642 91.165267 -3.648619 25.705881 -4.472884 31.463240 -1.248602 0.000000 0.000000 0.000000 
-8.449080 0.883900 -3.497522 171.741354 73.868708 -169.457205 4.726392 -2.943481 -30.423082 -25.837932 -6.678652 44.301711 26.253195 34.451955 -6.576566 0.000000 0.000000 0.000000 0.133948 -2.143457 -34.166811 -2.288508 -5.357247 23.104560 8.906497 2.511622 -29.585216 0.000000 0.000000 0.000000 -0.130112 0.522856 -18.380219 1.111052 0.951294 -10.520383 -2.986321 -2.333279 32.791188 9.321611 2.187092 -17.533509 0.000000 0.000000 0.000000 28.130898 7.092926 12.834230 -81.768557 -20.065658 -33.254680 -32.552211 -16.143749 3.590140 0.000000 0.000000 0.000000 -30.955906 -2.672771 -10.812033 91.524666 -6.213929 28.171797 -5.981002 30.463650 -1.905632 0.000000 0.000000 0.000000 
-9.213230 0.882657 -3.306356 175.839471 63.966248 -162.085581 2.888910 -2.114017 -26.307645 -16.778175 -7.158853 37.531664 31.795549 26.389588 -7.500685 0.000000 0.000000 0.000000 2.440633 -4.784623 -39.931686 -4.330107 -6.052304 24.728565 10.394131 5.990208 -25.827458 0.000000 0.000000 0.000000 0.365573 0.009306 -22.300132 1.195715 0.871971 -10.640935 -3.040838 -2.073876 33.493806 9.497093 2.733376 -17.699361 0.000000 0.000000 0.000000 29.077764 7.335007 13.921359 -81.658330 -21.097017 -37.078125 -34.192804 -13.415241 2.388550 0.000000 0.000000 0.000000 -32.160527 -2.604540 -11.757386 92.330400 -7.791154 32.296132 -7.284935 29.056606 -2.576335 0.000000 0.000000 0.000000 
